<svg version="1.1" id="el_JXYeJJHYH" xmlns="http://www.w3.org/2000/svg" xmlns:xlink="http://www.w3.org/1999/xlink" x="0px" y="0px" viewBox="0 0 200 200" style="enable-background:new 0 0 200 200;" xml:space="preserve"><style>@-webkit-keyframes el_1Tdp_r2QF8_AbMDZNFa7_Animation{0%{-webkit-transform: translate(50px, 50px);transform: translate(50px, 50px);}50%{-webkit-transform: translate(25px, 25px);transform: translate(25px, 25px);}100%{-webkit-transform: translate(0px, 0px);transform: translate(0px, 0px);}}@keyframes el_1Tdp_r2QF8_AbMDZNFa7_Animation{0%{-webkit-transform: translate(50px, 50px);transform: translate(50px, 50px);}50%{-webkit-transform: translate(25px, 25px);transform: translate(25px, 25px);}100%{-webkit-transform: translate(0px, 0px);transform: translate(0px, 0px);}}@-webkit-keyframes el_1Tdp_r2QF8_aZFFgObGn_Animation{0%{-webkit-transform: scale(0.5, 0.5);transform: scale(0.5, 0.5);}50%{-webkit-transform: scale(0.75, 0.75);transform: scale(0.75, 0.75);}100%{-webkit-transform: scale(1, 1);transform: scale(1, 1);}}@keyframes el_1Tdp_r2QF8_aZFFgObGn_Animation{0%{-webkit-transform: scale(0.5, 0.5);transform: scale(0.5, 0.5);}50%{-webkit-transform: scale(0.75, 0.75);transform: scale(0.75, 0.75);}100%{-webkit-transform: scale(1, 1);transform: scale(1, 1);}}#el_JXYeJJHYH *{-webkit-animation-duration: 1s;animation-duration: 1s;-webkit-animation-timing-function: cubic-bezier(0, 0, 1, 1);animation-timing-function: cubic-bezier(0, 0, 1, 1);}#el_1xRbiH2Z3H{fill: none;stroke: #FFFFFF;stroke-width: 5;stroke-miterlimit: 10;}#el_QIgtbr-lkv{fill: #F9B508;stroke: #000000;stroke-width: 6;stroke-linecap: round;stroke-linejoin: round;stroke-miterlimit: 10;}#el_iU1lKHj051{fill: none;stroke: #000000;stroke-width: 3;stroke-linecap: round;stroke-linejoin: round;stroke-miterlimit: 10;}#el_iJYtUi9NmY{fill: none;stroke: #000000;stroke-width: 3;stroke-linecap: round;stroke-linejoin: round;stroke-miterlimit: 10;}#el_3mqG0DA_2s{fill: none;stroke: #000000;stroke-width: 3;stroke-linecap: round;stroke-linejoin: round;stroke-miterlimit: 10;}#el_KJhE2xDNlf{fill: none;stroke: #000000;stroke-width: 6;stroke-linecap: round;stroke-linejoin: round;stroke-miterlimit: 10;}#el_A3eqsiDld3{fill: #FFFFFF;}#el_1Tdp_r2QF8_-7Sfaae4p{-webkit-transform-origin: 50% 50%;transform-origin: 50% 50%;transform-box: fill-box;-webkit-transform: scale(0.57, 0);transform: scale(0.57, 0);}#el_QIgtbr-lkv_4Gz7ciV4g{-webkit-transform-origin: 50% 50%;transform-origin: 50% 50%;transform-box: fill-box;-webkit-transform: scale(0.76, 0.76);transform: scale(0.76, 0.76);}#el_1Tdp_r2QF8_x81knjSyG{-webkit-transform-origin: 50% 50%;transform-origin: 50% 50%;transform-box: fill-box;-webkit-transform: scale(0.5, 0.5);transform: scale(0.5, 0.5);}#el_1Tdp_r2QF8_r4wnUiK6h{-webkit-transform-origin: 50% 50%;transform-origin: 50% 50%;transform-box: fill-box;-webkit-transform: rotate(20deg);transform: rotate(20deg);}#el_1Tdp_r2QF8_bHUlcq-q6{-webkit-transform-origin: 50% 50%;transform-origin: 50% 50%;transform-box: fill-box;-webkit-transform: translate(0px, 0px);transform: translate(0px, 0px);}#el_1Tdp_r2QF8_LBCEcUFyz{-webkit-transform-origin: 50% 50%;transform-origin: 50% 50%;transform-box: fill-box;-webkit-transform: scale(0.5, 0.5);transform: scale(0.5, 0.5);}#el_1Tdp_r2QF8_3LeCWZ1zM{-webkit-transform-origin: 50% 50%;transform-origin: 50% 50%;transform-box: fill-box;-webkit-transform: scale(1, 1);transform: scale(1, 1);}#el_1Tdp_r2QF8_6XMMZU_L_{-webkit-transform-origin: 50% 50%;transform-origin: 50% 50%;transform-box: fill-box;-webkit-transform: translate(0px, 0px);transform: translate(0px, 0px);}#el_1Tdp_r2QF8_aZFFgObGn{-webkit-animation-name: el_1Tdp_r2QF8_aZFFgObGn_Animation;animation-name: el_1Tdp_r2QF8_aZFFgObGn_Animation;-webkit-transform-origin: 50% 50%;transform-origin: 50% 50%;transform-box: fill-box;-webkit-transform: scale(0.5, 0.5);transform: scale(0.5, 0.5);}#el_1Tdp_r2QF8_ArRyCTkyH{-webkit-transform-origin: 50% 50%;transform-origin: 50% 50%;transform-box: fill-box;-webkit-transform: translate(25px, 50px);transform: translate(25px, 50px);}#el_1Tdp_r2QF8_AbMDZNFa7{-webkit-animation-name: el_1Tdp_r2QF8_AbMDZNFa7_Animation;animation-name: el_1Tdp_r2QF8_AbMDZNFa7_Animation;-webkit-transform-origin: 50% 50%;transform-origin: 50% 50%;transform-box: fill-box;-webkit-transform: translate(50px, 50px);transform: translate(50px, 50px);}#el_1Tdp_r2QF8_CIb4OdAB9{-webkit-transform-origin: 50% 50%;transform-origin: 50% 50%;transform-box: fill-box;-webkit-transform: rotate(3610deg);transform: rotate(3610deg);}</style>

<g id="el_1Tdp_r2QF8_AbMDZNFa7" data-animator-group="true" data-animator-type="0"><g id="el_1Tdp_r2QF8_aZFFgObGn" data-animator-group="true" data-animator-type="2"><g id="el_1Tdp_r2QF8">
	<path d="M195.3,101c0,1.2-87.9-0.7-88,0.5s87.2,11.7,87.1,12.9c-0.2,1.2-86.9-13.1-87.2-12c-0.3,1.2,84.7,24,84.3,25.2&#xA;&#9;&#9;c-0.3,1.2-84.2-25.5-84.6-24.4s80.4,35.9,79.9,37s-79.6-37.3-80.2-36.2c-0.6,1.1,74.4,47,73.8,48c-0.6,1-73.5-48.2-74.2-47.3&#xA;&#9;&#9;c-0.7,1,67,57.1,66.2,58s-66-58.2-66.8-57.3c-0.8,0.8,58.2,66,57.3,66.8s-57.1-66.9-58-66.2c-1,0.7,48.3,73.6,47.3,74.2&#xA;&#9;&#9;s-47-74.3-48-73.8c-1,0.6,37.3,79.7,36.2,80.2s-35.9-80.3-37-79.9s25.5,84.2,24.4,84.6c-1.1,0.3-24-84.6-25.2-84.3&#xA;&#9;&#9;c-1.2,0.3,13.2,87,12,87.2s-11.7-87.2-12.9-87.1c-1.2,0.1,0.7,88-0.5,88s0.7-87.9-0.5-88S89,194.3,87.8,194.2&#xA;&#9;&#9;c-1.2-0.2,13.1-86.9,12-87.2c-1.2-0.3-24,84.7-25.2,84.3c-1.2-0.3,25.5-84.2,24.4-84.6s-35.9,80.4-37,79.9s37.3-79.6,36.2-80.2&#xA;&#9;&#9;c-1.1-0.6-47,74.4-48,73.8c-1-0.6,48.2-73.5,47.3-74.2c-1-0.7-57.1,67-58,66.2s58.2-66,57.3-66.8c-0.8-0.8-66,58.2-66.8,57.3&#xA;&#9;&#9;c-0.8-0.9,66.9-57.1,66.2-58c-0.7-1-73.6,48.3-74.2,47.3c-0.6-1,74.3-47,73.8-48c-0.6-1-79.7,37.3-80.2,36.2s80.3-35.9,79.9-37&#xA;&#9;&#9;s-84.2,25.5-84.6,24.4c-0.3-1.1,84.6-24,84.3-25.2c-0.3-1.2-87,13.2-87.2,12c-0.2-1.2,87.2-11.7,87.1-12.9c-0.1-1.2-88,0.7-88-0.5&#xA;&#9;&#9;s87.9,0.7,88-0.5S7.9,88.8,8,87.6c0.2-1.2,86.9,13.1,87.2,12c0.3-1.2-84.7-24-84.3-25.2c0.3-1.2,84.2,25.5,84.6,24.4&#xA;&#9;&#9;s-80.4-35.9-79.9-37C15.7,60.7,94.8,99,95.4,98C96,96.9,21,51,21.7,50c0.6-1,73.5,48.2,74.2,47.3c0.7-1-67-57.1-66.2-58&#xA;&#9;&#9;c0.8-0.9,66,58.2,66.8,57.3c0.8-0.8-58.2-66-57.3-66.8c0.9-0.8,57.1,66.9,58,66.2c1-0.7-48.3-73.6-47.3-74.2c1-0.6,47,74.3,48,73.8&#xA;&#9;&#9;c1-0.6-37.3-79.7-36.2-80.2s35.9,80.3,37,79.9c1.1-0.4-25.5-84.2-24.4-84.6c1.1-0.3,24,84.6,25.2,84.3c1.2-0.3-13.2-87-12-87.2&#xA;&#9;&#9;c1.2-0.2,11.7,87.2,12.9,87.1c1.2-0.1-0.7-88,0.5-88s-0.7,87.9,0.5,88s11.7-87.2,12.9-87.1c1.2,0.2-13.1,86.9-12,87.2&#xA;&#9;&#9;c1.2,0.3,24-84.7,25.2-84.3c1.2,0.3-25.5,84.2-24.4,84.6s35.9-80.4,37-79.9S102.8,95,103.9,95.6c1.1,0.6,47-74.4,48-73.8&#xA;&#9;&#9;c1,0.6-48.2,73.5-47.3,74.2c1,0.7,57.1-67,58-66.2c0.9,0.8-58.2,66-57.3,66.8c0.8,0.8,66-58.2,66.8-57.3s-66.9,57.1-66.2,58&#xA;&#9;&#9;c0.7,1,73.6-48.3,74.2-47.3s-74.3,47-73.8,48c0.6,1,79.7-37.3,80.2-36.2s-80.3,35.9-79.9,37c0.4,1.1,84.2-25.5,84.6-24.4&#xA;&#9;&#9;c0.3,1.1-84.6,24-84.3,25.2c0.3,1.2,87-13.2,87.2-12s-87.2,11.7-87.1,12.9C107.4,101.7,195.3,99.8,195.3,101z" id="el_1xRbiH2Z3H"/>
</g></g></g>
<g id="el_3gTU5riAWS">
	<path d="M113.9,158.2H83.4c-11.5,0-20.8-9.3-20.8-20.8V70.2c0-1.8,1.5-3.2,3.2-3.2h65.5c1.8,0,3.2,1.5,3.2,3.2v67.3&#xA;&#9;&#9;C134.7,148.9,125.4,158.2,113.9,158.2z" id="el_QIgtbr-lkv"/>
	<g id="el_Z00gX8w3vf">
		<line x1="81" y1="102" x2="81" y2="140.9" id="el_iU1lKHj051"/>
		<line x1="97.7" y1="102" x2="97.7" y2="140.9" id="el_iJYtUi9NmY"/>
		<line x1="114" y1="102" x2="114" y2="140.9" id="el_3mqG0DA_2s"/>
	</g>
	<path d="M134.7,85.8h11.4c7.8,0,14.2,6.5,14.2,14.5V118c0,8-6.3,14.5-14.2,14.5h-11.4" id="el_KJhE2xDNlf"/>
	<g id="el_7ku087pO0T">
		<path d="M75.7,124.1c-3.1,0-5.7-2.7-6-6.2v-0.1L70,87.2c-3.6-2.3-5.7-5-6.1-7.9c-0.2-1.4-0.3-2.8-0.3-4&#xA;&#9;&#9;&#9;c-2.6-0.2-9.2-1.4-11.7-6.9c-1.3-2.9-1.1-6.3,0.4-9.7c1.8-3.9,5.3-7,9-8c1-0.3,2-0.4,3-0.4c0.5,0,1,0,1.5,0.1&#xA;&#9;&#9;&#9;c0.9-3.7,3-9.1,8.1-12.7c3.1-2.2,7-3.4,11.1-3.4c6,0,12.5,2.5,17,6.6c0.8,0.7,1.5,1.5,2.2,2.3c1.4-0.3,2.8-0.5,4.2-0.5&#xA;&#9;&#9;&#9;c1.1,0,2.1,0.1,3.2,0.3c6.1,1.1,10,5.2,12,7.9c1.5-0.6,3.3-1.1,5.4-1.1c1,0,2.1,0.1,3.1,0.4c7.2,1.9,11.2,9.9,10.9,16.6&#xA;&#9;&#9;&#9;c-0.1,1.3-0.7,8.1-6.6,12.3c-2.6,1.9-5.8,2.9-9.1,2.9c-2.5,0-5-0.6-7.3-1.7c-2.6,1.7-7,3.7-12.6,3.8h-0.3c-5,0-9-1.5-11.7-3.1&#xA;&#9;&#9;&#9;c-1.7,3-5.1,7.5-10.8,8.4c-0.7,0.1-1.3,0.2-2,0.2c-0.5,0-0.9,0-1.4-0.1v30.4l-0.2,0.4c-0.8,2.2-2.6,3.7-4.7,4&#xA;&#9;&#9;&#9;C76.1,124.1,75.9,124.1,75.7,124.1z" id="el_A3eqsiDld3"/>
		<path d="M85,36.7c5.8,0,11.6,2.6,15.3,5.9c1.3,1.2,2.3,2.4,2.9,3.3c1.2-0.4,3-0.8,5.1-0.8c0.9,0,1.8,0.1,2.7,0.2&#xA;&#9;&#9;&#9;c7.3,1.3,11,7.6,11.6,8.6c0.9-0.5,3.3-1.8,6.3-1.8c0.8,0,1.6,0.1,2.5,0.3c5.9,1.5,9.3,8.2,9,14c0,0.7-0.4,6.8-5.5,10.4&#xA;&#9;&#9;&#9;c-2.2,1.6-4.9,2.4-7.6,2.4c-2.5,0-5.1-0.7-7.5-2.1c-1.6,1.2-6.1,4.1-12.5,4.2c-0.1,0-0.2,0-0.3,0c-6.6,0-11.2-3.1-12.8-4.2&#xA;&#9;&#9;&#9;C94,77.6,91,85.5,84,86.6c-0.6,0.1-1.1,0.1-1.6,0.1c-1.6,0-2.9-0.4-3.9-0.7c0,11,0,22.1,0,33.1c-0.5,1.3-1.5,2.2-2.6,2.4&#xA;&#9;&#9;&#9;c-0.1,0-0.2,0-0.3,0c-1.6,0-3.3-1.6-3.5-3.9c0.1-10.6,0.2-21.3,0.3-31.9c-4.7-2.6-5.9-5.1-6.1-6.9c-0.4-2.7-0.6-5.5,0.6-6.6&#xA;&#9;&#9;&#9;c0.1-0.1,0.1-0.1,0.1-0.1c-0.1,0-0.9,0.4-1.9,0.5c0,0-0.2,0-0.4,0h-0.1c-1.2,0-8.3-0.5-10.5-5.5c-2.3-5.1,2.3-12.5,8-14.1&#xA;&#9;&#9;&#9;c0.8-0.2,1.6-0.3,2.3-0.3c1.4,0,2.6,0.3,3.5,0.6c0.2-1.9,1.4-9.4,7.6-13.7C78.3,37.5,81.7,36.7,85,36.7 M85,31.7&#xA;&#9;&#9;&#9;c-4.6,0-9,1.3-12.5,3.9c-4.8,3.4-7.3,8.3-8.5,12.2c-1.1,0-2.2,0.2-3.3,0.5c-4.4,1.2-8.5,4.8-10.6,9.4c-1.9,4-2.1,8.2-0.5,11.8&#xA;&#9;&#9;&#9;c2.4,5.4,7.9,7.4,11.6,8c0.1,0.8,0.2,1.5,0.2,2.2c0.4,3.4,2.5,6.4,6,8.9l-0.3,29.1v0.2v0.2c0.3,4.8,4.1,8.5,8.5,8.5&#xA;&#9;&#9;&#9;c0.3,0,0.6,0,0.9-0.1c3-0.4,5.5-2.5,6.7-5.6l0.3-0.8v-0.9V91.8c0.4,0,0.9-0.1,1.3-0.1c5.5-0.9,9.2-4.4,11.4-7.6&#xA;&#9;&#9;&#9;c2.8,1.3,6.5,2.3,10.8,2.3h0.4c5.4-0.1,9.8-1.8,12.7-3.4c2.3,0.9,4.7,1.4,7.2,1.4c3.8,0,7.5-1.2,10.6-3.4&#xA;&#9;&#9;&#9;c6.8-4.9,7.5-12.7,7.6-14.2c0.4-7.6-4-16.9-12.8-19.1c-1.2-0.3-2.4-0.5-3.7-0.5c-1.6,0-3.2,0.3-4.5,0.7c-2.5-2.9-6.6-6.3-12.4-7.4&#xA;&#9;&#9;&#9;c-1.2-0.2-2.4-0.3-3.6-0.3c-1.1,0-2.2,0.1-3.2,0.3c-0.5-0.5-0.9-1-1.4-1.4C98.8,34.4,91.6,31.7,85,31.7L85,31.7z" id="el_1quCZjzzR9"/>
	</g>
</g>
<script>(function(){var a=document.querySelector('#el_JXYeJJHYH'),b=a.querySelectorAll('style'),c=function(d){b.forEach(function(f){var g=f.textContent;g&amp;&amp;(f.textContent=g.replace(/transform-box:[^;\r\n]*/gi,'transform-box: '+d))})};c('initial'),window.requestAnimationFrame(function(){return c('fill-box')})})();</script></svg>